<svg width="32" height="32" viewBox="0 0 32 32" fill="none" xmlns="http://www.w3.org/2000/svg">
<rect width="32" height="32" rx="6" fill="#3751FF"/>
<path d="M17.0384 18.0038L17.8161 17.2399C18.9982 16.079 18.9982 14.1967 17.8161 13.0357L16.3525 11.5982C15.1704 10.4372 13.2539 10.4372 12.0718 11.5982L6.14034 17.4237C4.95826 18.5847 4.95826 20.467 6.14034 21.628L7.60398 23.0655C8.78606 24.2265 10.7026 24.2265 11.8847 23.0655L13.3914 21.5857" stroke="white" stroke-width="1.5"/>
<path d="M14.9616 15.3321L14.1839 16.096C13.0018 17.2569 13.0018 19.1392 14.1839 20.3002L15.6475 21.7377C16.8296 22.8987 18.7461 22.8987 19.9282 21.7377L25.8597 15.9122C27.0417 14.7512 27.0417 12.8689 25.8597 11.7079L24.396 10.2704C23.2139 9.10942 21.2974 9.10942 20.1153 10.2704L18.6086 11.7502" stroke="white" stroke-width="1.5"/>
</svg>
